<svg version="1.1" id="Layer_1" xmlns="http://www.w3.org/2000/svg" xmlns:xlink="http://www.w3.org/1999/xlink" x="0px" y="0px"
	 width="100%" viewBox="0 0 640 640" enable-background="new 0 0 640 640" xml:space="preserve">
<path fill="#c0c0c0" opacity="1.000000" stroke="none" 
	d="
M309.468628,641.000000 
	C304.710144,637.340759 299.603333,634.812439 295.547272,630.764954 
	C290.106171,625.335327 288.506256,618.301941 288.519226,611.415405 
	C288.531128,605.081177 289.364380,598.433716 292.609497,592.465027 
	C295.658234,586.857544 300.563629,583.560486 305.975708,580.896912 
	C307.486603,580.153320 308.619446,579.704651 308.619507,577.906860 
	C308.619965,561.776428 308.619812,545.645996 308.619812,529.203369 
	C302.997955,529.128418 298.002686,529.393250 292.948853,531.570923 
	C295.399811,537.999390 290.676361,542.729492 288.687927,548.004761 
	C287.020508,552.428345 277.702484,554.808777 272.688782,553.459961 
	C259.006409,549.779175 255.199707,540.268433 259.250336,527.545166 
	C260.210602,524.528870 262.639435,521.736084 265.352692,521.383118 
	C271.880127,520.533752 275.268127,514.302307 281.347137,513.038818 
	C281.637329,512.978516 282.021942,512.688354 282.106842,512.423340 
	C285.039734,503.266266 292.717834,504.777649 299.615875,504.673431 
	C309.279083,504.527374 308.645752,505.758606 308.656769,495.381165 
	C308.672485,480.548584 308.683136,465.715912 308.651306,450.883423 
	C308.639313,445.304016 307.523926,444.268158 301.995056,444.343506 
	C301.328949,444.352570 300.652832,444.396820 299.997498,444.306915 
	C290.354950,442.983856 290.354065,442.979095 290.341431,452.558441 
	C290.335693,456.891541 290.289520,461.225372 290.353088,465.557526 
	C290.392487,468.242889 289.794067,470.960785 287.244293,471.855530 
	C282.029694,473.685455 280.837646,480.587402 274.720215,481.292419 
	C273.745667,481.404755 273.316101,484.193024 272.176819,485.251404 
	C262.542023,494.201782 253.194931,503.531677 242.937088,511.714142 
	C237.207336,516.284546 232.446625,521.747986 226.841080,526.379700 
	C221.180710,531.056702 216.062515,536.389954 210.707367,541.436279 
	C210.586166,541.550537 210.470474,541.670654 210.354416,541.790161 
	C208.647461,543.547302 204.792236,541.991882 204.391861,545.921326 
	C203.940979,550.346497 204.055435,554.953369 206.954071,558.183350 
	C212.658752,564.539978 210.727600,572.006042 211.105850,579.169067 
	C211.152924,580.060486 210.619812,581.199768 209.984161,581.874207 
	C206.295074,585.789001 203.023529,589.815857 197.870621,592.527344 
	C192.053650,595.588257 186.818451,596.208801 181.050049,594.053406 
	C172.155197,590.729858 164.311508,584.611023 165.053360,573.991394 
	C165.196594,571.941162 164.226242,570.054016 164.774216,568.108093 
	C166.506042,561.958130 167.688599,555.507874 174.942871,552.931946 
	C179.341202,551.370178 181.265381,547.334717 181.485931,543.229919 
	C182.043137,532.859131 188.945450,527.722900 196.820984,523.228577 
	C197.947739,522.585571 198.730637,521.786499 199.119598,520.773132 
	C200.208679,517.935486 202.010513,516.186646 205.016327,515.330750 
	C208.052017,514.466370 207.852570,510.354370 210.340866,509.060181 
	C215.755005,506.244202 218.095154,499.667633 224.448471,497.971100 
	C226.185211,497.507324 226.089844,494.221130 227.426682,493.624268 
	C233.672333,490.835876 235.954361,483.841766 241.408112,480.689880 
	C244.655685,478.813049 247.303940,477.182312 249.165405,473.832001 
	C250.294876,471.799072 252.203629,469.988556 255.010742,469.546326 
	C257.285370,469.187988 258.682983,467.334015 259.517853,465.247345 
	C259.967102,464.124390 260.434296,462.745911 261.493103,462.496033 
	C267.398193,461.102386 266.748322,456.605255 266.670197,452.250458 
	C266.586975,447.611969 266.651428,442.970825 266.651428,438.206146 
	C266.302490,438.206146 265.580536,438.423981 265.105774,438.173431 
	C258.110718,434.482056 252.450882,436.330780 247.842194,442.326996 
	C244.424316,446.773865 239.756363,450.078918 235.463547,453.258392 
	C231.100266,456.489990 229.193512,462.310394 224.520508,464.060608 
	C216.864075,466.928284 214.940155,474.700592 209.431061,479.282562 
	C207.218750,481.122589 203.897781,479.432404 202.365784,482.670593 
	C199.882660,487.919128 195.567596,491.844330 191.320724,495.618164 
	C185.604874,500.697357 180.658203,506.792969 174.601822,511.196564 
	C168.033890,515.972168 164.181198,523.438599 157.469925,527.411926 
	C151.681152,530.839050 149.358322,537.143066 143.984497,540.595093 
	C142.091110,541.811340 141.838654,543.512756 142.313858,545.762268 
	C143.792648,552.762451 145.423752,559.576599 142.545258,566.932617 
	C140.121994,573.125183 135.969055,577.065186 130.287781,578.985107 
	C127.278725,580.001953 124.455666,582.340820 120.629333,581.501892 
	C117.165184,580.742554 113.509293,581.371277 110.857903,577.946350 
	C109.958237,576.784180 107.668152,576.634583 105.973602,576.166443 
	C103.419846,575.460938 101.214584,573.867920 100.715477,571.503235 
	C99.896263,567.622009 97.501678,564.513062 96.519249,560.655457 
	C94.285385,551.883850 99.504959,541.327393 107.178879,536.749084 
	C111.180191,534.361938 114.903603,533.471924 119.404350,532.966248 
	C120.088539,529.060730 122.775383,526.922668 126.424828,525.493530 
	C129.076874,524.454956 130.936050,522.460327 132.543335,519.931213 
	C135.787048,514.826965 139.849060,510.347565 145.393387,507.562225 
	C146.809906,506.850647 147.685944,505.827057 148.539261,504.537903 
	C152.288635,498.873566 156.728271,494.046600 162.978180,490.821411 
	C165.818359,489.355743 168.148773,486.525635 170.150681,483.889404 
	C174.517487,478.138977 178.558289,472.312500 185.803406,469.553253 
	C188.723999,468.440948 189.516678,464.632324 191.572754,462.255859 
	C197.126389,455.836884 204.815445,451.736481 209.993759,444.837830 
	C211.911255,442.283234 216.780869,442.513641 217.990997,439.112823 
	C218.965897,436.373108 220.635269,434.650726 222.629654,432.930481 
	C222.755081,432.822296 222.893188,432.706146 222.966415,432.563446 
	C224.170074,430.216919 230.608063,431.657288 228.000153,427.495728 
	C226.163223,424.564453 223.457443,421.389618 218.227142,420.597198 
	C213.905228,419.942444 208.764923,417.590820 204.587891,414.718719 
	C203.101624,413.696716 201.561096,412.753662 200.255112,411.910065 
	C194.475510,415.147125 191.138062,420.720062 185.975662,424.166199 
	C178.640274,429.062927 173.029495,435.971344 165.771713,441.111572 
	C162.590973,443.364258 159.315613,447.272278 156.075851,449.928711 
	C149.709244,455.148834 145.360992,462.691193 137.344009,466.091217 
	C135.355301,466.934662 134.575607,470.563324 132.582932,471.474579 
	C125.079292,474.906067 121.273491,482.704559 114.011009,486.553864 
	C112.104744,487.564240 110.118095,490.738861 108.166901,492.918152 
	C107.486389,493.678284 107.187759,494.368469 107.394386,495.557709 
	C108.764793,503.444763 106.647957,510.390991 102.620628,517.349182 
	C96.808670,527.390869 87.172325,531.491394 77.122887,532.892761 
	C67.250748,534.269409 57.088417,531.298523 51.078285,522.127625 
	C46.612751,515.313660 41.650436,508.319031 42.649181,499.272186 
	C43.896862,487.970428 50.029091,473.532227 63.639206,470.697571 
	C68.935486,469.594482 73.869743,470.144623 78.821404,469.514832 
	C84.166771,468.834991 87.804550,470.839508 91.821678,473.089478 
	C93.793259,474.193726 96.032600,473.255585 96.877571,472.205139 
	C99.120461,469.417023 103.047028,468.458923 104.379128,464.631256 
	C104.961624,462.957458 106.606728,461.032715 108.870407,461.178650 
	C110.933945,461.311646 111.470467,460.334381 111.827164,458.682892 
	C112.204689,456.935059 113.524124,455.600037 114.922569,454.912506 
	C121.940567,451.462463 125.744705,443.956329 133.096222,440.816742 
	C134.817261,440.081696 135.123596,436.334412 136.867920,435.298798 
	C142.771469,431.793884 146.243698,425.364777 151.855362,422.173157 
	C157.290710,419.081818 160.153976,413.623993 165.629944,410.543365 
	C169.111115,408.584991 172.133560,404.185364 175.022079,400.589050 
	C176.583572,398.644867 175.600403,396.693542 173.639664,396.381683 
	C170.336609,395.856354 168.395493,393.948517 166.837509,391.405762 
	C165.668091,389.497192 162.672256,390.679932 161.949722,388.286407 
	C155.527756,391.212952 151.485214,396.936584 146.239624,401.086578 
	C144.306763,402.615784 141.731506,404.943207 138.994064,406.348053 
	C135.747803,408.014038 133.128540,412.524109 132.353165,416.730438 
	C131.507202,421.319580 129.656219,425.215973 126.976334,428.898193 
	C126.340218,429.772247 125.623497,430.603394 124.694855,430.644226 
	C119.827034,430.858215 115.264320,432.913361 110.216148,432.429596 
	C104.404251,431.872589 102.807388,426.849182 100.306618,423.322327 
	C98.904266,421.344574 97.169792,418.732483 96.723740,415.905945 
	C96.189247,412.519104 97.514847,409.821289 99.551514,407.213867 
	C101.250946,405.038208 100.783211,402.269501 104.450340,400.241241 
	C108.691223,397.895691 113.062714,396.845551 117.356583,395.185272 
	C117.953880,394.954315 118.896889,394.861633 119.084160,394.440216 
	C121.566025,388.855194 126.695175,385.757416 130.907623,381.835327 
	C133.889893,379.058624 137.215958,376.651154 140.426132,374.048401 
	C121.621178,356.599091 100.045319,342.099457 82.238327,323.129730 
	C86.091629,316.335052 92.564819,311.761200 98.656570,306.543671 
	C102.973816,302.846008 107.066811,298.375458 111.542664,294.946198 
	C117.518539,290.367615 123.282127,285.458771 129.470322,281.136383 
	C132.415283,279.079346 135.416367,277.083496 138.206543,274.830261 
	C140.303894,273.136536 139.680252,270.779449 136.924103,270.138977 
	C133.747421,269.400818 131.666977,266.435730 130.189926,264.677917 
	C126.099380,259.809845 118.806107,258.187317 116.857162,251.300751 
	C116.492409,250.011902 114.965965,249.803528 113.486275,249.790680 
	C109.717735,249.757965 106.922188,246.995377 103.504257,245.819061 
	C100.071808,244.637711 96.037102,233.011795 96.795670,229.049988 
	C99.873055,212.977570 110.484741,212.719040 120.931854,214.424271 
	C125.241631,215.127747 125.366615,219.581253 129.095001,220.868134 
	C131.005615,221.527588 134.152924,225.161346 132.392242,229.623062 
	C131.789597,231.150192 133.662415,234.151703 133.198975,236.006226 
	C142.333893,244.120743 151.193863,251.991013 160.328384,260.105194 
	C164.977768,256.720001 169.762451,253.218689 174.573380,249.753815 
	C175.241531,249.272614 176.119125,249.072220 176.759918,248.565109 
	C178.048431,247.545456 181.074081,248.908447 180.827560,246.023575 
	C180.627609,243.683746 178.426468,242.314209 176.596573,241.431244 
	C171.561020,239.001419 166.465591,236.105194 163.830780,231.443115 
	C161.287033,226.942154 156.574722,225.688370 153.640167,222.007156 
	C150.394302,217.935410 145.888809,215.013992 142.219284,211.200684 
	C139.586945,208.465210 135.806290,206.059067 133.018204,203.385757 
	C129.276413,199.798019 124.224747,197.708588 121.453400,192.834000 
	C119.942360,190.176163 115.833305,189.836517 113.734337,186.973038 
	C111.597641,184.058105 107.309235,182.877258 106.787155,178.557129 
	C102.257484,179.361069 102.463615,172.536926 97.802307,173.095200 
	C95.631798,173.355164 95.626511,170.659027 95.003349,168.128296 
	C90.837143,172.449600 86.165474,173.884949 81.151756,175.359390 
	C74.718025,177.251404 69.563988,175.180298 63.744087,173.729462 
	C57.150551,172.085739 54.193882,166.101105 48.825569,163.210236 
	C47.798016,162.656921 47.734425,161.595230 47.375103,160.699814 
	C44.564617,153.696121 41.485100,146.294281 43.085823,138.951324 
	C44.280685,133.470169 46.120277,127.805061 50.038860,122.735786 
	C53.446766,118.327171 58.161297,116.668060 61.938606,113.358452 
	C63.474667,112.012596 65.759903,111.893005 68.367889,112.304604 
	C72.063522,112.887878 76.257500,112.594490 79.889748,112.214554 
	C84.664978,111.715065 88.225815,113.243813 91.354095,115.499329 
	C102.892700,123.818718 109.410873,134.963043 107.952370,149.648788 
	C107.582367,153.374329 110.426857,154.488525 112.347328,155.387039 
	C118.135635,158.095184 122.199142,162.871201 126.715240,166.925446 
	C130.247665,170.096603 134.393814,172.563736 137.559250,176.319839 
	C139.139236,178.194641 141.863312,179.220734 142.632172,181.998428 
	C143.391724,184.742477 146.453522,183.639847 148.053177,185.367447 
	C152.378983,190.039307 157.238464,194.196548 161.775986,198.680145 
	C167.563568,204.398911 174.297470,209.164764 180.663666,214.291473 
	C184.787201,217.612152 188.078827,221.759354 191.761215,225.409576 
	C194.952103,228.572617 198.763718,232.063934 203.423035,233.670502 
	C204.804398,234.146790 206.751999,234.739899 207.715393,233.548996 
	C210.616257,229.963074 215.314667,229.632812 218.656525,227.029236 
	C220.755753,225.393768 223.253281,225.548050 225.501205,225.063461 
	C227.937775,224.538223 229.484222,223.053268 230.385910,221.416214 
	C231.432083,219.516830 229.078934,218.295197 227.899887,217.002548 
	C223.897919,212.615005 218.953079,209.067581 216.210297,203.562027 
	C214.797806,200.726730 211.124023,200.827881 209.327560,199.007431 
	C202.637482,192.228088 195.294098,186.094879 189.543747,178.278702 
	C188.191040,176.440033 184.853378,174.226898 182.341675,172.366913 
	C177.770996,168.982178 173.770126,164.749680 169.872604,160.554047 
	C165.007797,155.317200 160.437088,149.225754 155.223846,145.013794 
	C148.872925,139.882660 143.605453,133.760559 137.363785,128.649811 
	C136.732147,128.132614 136.002914,127.642807 135.582092,126.974579 
	C132.373016,121.878853 128.460312,117.577202 122.866455,115.002052 
	C120.918388,114.105240 119.717728,112.584381 120.021851,110.256058 
	C113.161217,110.934280 106.440048,108.063881 103.274826,103.402107 
	C98.623856,96.552109 92.338821,88.543037 96.991714,79.217941 
	C99.544762,74.101250 101.387100,68.118980 107.470848,65.138962 
	C112.869431,62.494568 117.806229,61.142033 124.043259,62.604160 
	C128.050003,63.543446 131.903656,65.058296 135.231491,66.750778 
	C143.240250,70.823883 146.184311,83.394669 142.780151,91.869873 
	C139.891144,99.062538 142.698441,105.724930 150.012054,107.867996 
	C152.366913,108.558029 153.101059,110.809692 154.521286,112.333778 
	C160.118698,118.340500 167.217209,122.954842 171.126099,130.565216 
	C172.448471,133.139755 176.034622,132.205566 178.292740,134.736969 
	C185.425690,142.733109 193.790695,149.629456 200.933670,157.617798 
	C203.580658,160.578064 206.544800,163.480774 208.698257,166.916183 
	C210.328873,169.517487 213.690353,168.943970 215.612305,171.257263 
	C221.745804,178.639526 229.893250,184.123688 235.152039,192.454269 
	C236.639755,194.811005 240.493652,195.323563 242.989822,197.528580 
	C247.790192,201.768936 249.986374,208.048553 255.100159,211.907043 
	C256.374847,212.868805 257.901978,214.956726 259.259369,213.430664 
	C261.482025,210.931778 267.318817,213.335693 266.820251,206.974716 
	C266.358459,201.083221 266.700073,195.071991 267.201447,189.078568 
	C267.554352,184.859619 263.224579,181.796402 259.777954,179.265121 
	C259.045258,178.727005 258.168060,178.319824 257.482147,177.611908 
	C252.456268,172.424744 246.797638,167.822891 241.894684,162.618042 
	C237.665756,158.128708 230.892487,155.951889 229.107239,149.188095 
	C223.155212,148.304642 221.810669,142.820038 218.754105,138.985046 
	C216.938675,136.707275 213.154587,137.877747 211.305878,134.712952 
	C207.682892,128.510773 200.717331,125.484665 196.363602,119.503227 
	C194.087540,116.376221 189.117523,113.960602 185.693695,110.764244 
	C181.639526,106.979416 179.850281,102.460983 180.758911,96.935577 
	C181.352097,93.328453 180.502914,90.984848 176.704834,89.117165 
	C166.045288,83.875366 162.125641,72.124481 166.471176,60.293797 
	C170.935501,48.139709 177.649139,43.001842 189.233765,43.803375 
	C193.121796,44.072388 196.680405,46.199333 200.286423,48.164497 
	C203.402130,49.862457 204.886444,52.725483 207.625961,54.503014 
	C211.095642,56.754307 209.522095,61.227947 210.710052,64.578430 
	C211.397919,66.518471 211.068665,69.646362 211.293900,72.243629 
	C211.469269,74.266022 211.055847,75.879791 209.323242,77.514977 
	C203.445053,83.062668 202.566635,93.035164 207.129440,99.751953 
	C208.041000,101.093834 209.461838,103.000999 210.696365,103.038231 
	C214.147278,103.142303 216.036102,105.299965 217.178162,107.703934 
	C219.450058,112.486183 224.286499,114.052483 227.813309,117.221855 
	C228.180206,117.551552 228.854675,117.682198 229.025360,118.065842 
	C232.457169,125.779480 242.247208,127.460243 245.432053,135.386017 
	C251.295059,136.173767 252.619934,141.598999 255.498749,145.376160 
	C257.263519,147.691635 260.836121,146.548141 262.204437,149.163284 
	C265.504913,155.471207 273.511261,156.928177 276.675598,163.658401 
	C277.901093,166.264908 282.003265,166.855545 284.494049,169.144699 
	C288.908325,173.201614 290.263397,178.032761 290.318024,183.577728 
	C290.380402,189.910156 290.326660,196.243652 290.346039,202.576614 
	C290.355133,205.543289 290.300659,207.031937 294.768402,206.288055 
	C298.997498,205.583893 303.569611,202.768692 308.658356,206.137802 
	C308.658356,203.794174 308.658264,202.168488 308.658356,200.542801 
	C308.660828,156.378342 308.665802,112.213882 308.661285,68.049423 
	C308.660889,64.209869 308.175201,61.936016 303.566742,59.545441 
	C296.875793,56.074612 292.018341,49.897259 289.661224,41.436417 
	C287.324036,33.047066 287.909424,25.933441 291.111755,18.280935 
	C294.581421,9.989724 301.096527,5.644090 309.164429,3.019631 
	C310.078156,2.722409 310.628876,2.432389 310.918243,1.268033 
	C317.687653,1.000000 324.375275,1.000000 331.531464,1.000000 
	C332.709961,1.846765 331.804413,3.773797 333.352661,3.846884 
	C341.695648,4.240726 345.086395,11.153214 348.715820,16.619314 
	C353.060516,23.162767 354.637787,31.104383 353.106201,39.167774 
	C352.717316,41.215126 352.147797,43.392593 349.990234,44.619427 
	C348.623810,45.396393 347.544556,46.800354 347.871155,48.313663 
	C348.470245,51.089649 346.601776,51.852280 345.003510,53.383907 
	C341.421722,56.816349 337.950562,60.266674 333.569092,62.733009 
	C332.447388,63.364414 332.366333,65.035965 332.368286,66.406677 
	C332.391113,82.403656 332.408325,98.400650 332.451202,114.397575 
	C332.452454,114.861374 332.719421,115.324455 332.860626,115.781799 
	C337.193970,115.241531 340.371399,111.744690 344.981995,111.646301 
	C346.351440,111.617081 348.867004,109.874130 348.927917,106.267769 
	C349.052490,98.887054 352.141663,92.431892 359.088898,88.517288 
	C362.713745,86.474808 373.146515,88.313370 376.675812,90.582947 
	C386.309845,96.778290 384.464081,105.338882 382.330475,114.115685 
	C380.773163,120.521866 374.598969,120.979698 370.000488,123.309555 
	C366.063019,125.304512 361.922028,126.674255 358.724579,130.091263 
	C356.446136,132.526169 352.905792,133.548187 350.085480,135.152740 
	C345.291107,137.880402 340.402985,138.737320 335.368011,140.016144 
	C333.304047,140.540375 332.397552,143.061081 332.393127,145.347961 
	C332.357483,163.845291 332.386261,182.342789 332.336884,200.840057 
	C332.329437,203.634232 333.624603,204.437332 336.276886,204.730347 
	C341.704163,205.329956 347.081635,206.380310 352.535339,207.253967 
	C353.348602,198.847214 351.740051,190.192093 353.514069,181.574463 
	C354.027924,179.078384 354.409149,176.377701 356.043060,174.932800 
	C361.208344,170.365097 363.889862,163.563721 369.356232,159.588913 
	C375.476288,155.138794 379.631897,148.730331 385.509583,144.387146 
	C389.743835,141.258316 391.756500,135.672546 396.240936,133.941025 
	C403.288208,131.219940 404.709564,122.393921 412.304443,120.755112 
	C415.508057,120.063828 415.139465,115.919769 417.529053,114.425430 
	C424.345062,110.162971 428.557098,102.807251 435.953766,99.196922 
	C438.214294,98.093552 438.371582,95.329643 438.573212,93.035461 
	C438.775696,90.731209 438.617706,88.395279 438.617706,86.036140 
	C432.893341,83.463295 428.253906,73.181023 429.769836,65.682747 
	C431.333954,57.945946 434.190063,50.635361 441.668213,46.910709 
	C447.628265,43.942173 453.850220,41.962425 460.872131,45.395294 
	C466.197479,47.998764 471.791107,49.459145 474.727173,55.476616 
	C476.267334,58.633156 477.886932,61.988567 478.084869,65.159050 
	C478.542023,72.481972 476.746948,79.501114 471.225952,84.982864 
	C470.638245,85.566406 470.013092,86.556549 469.377258,86.579498 
	C461.968018,86.846794 462.329803,92.138260 462.332001,97.235313 
	C462.333008,99.568260 462.333405,101.901482 462.298370,104.234039 
	C462.280884,105.397362 462.288605,107.275421 461.188049,107.271042 
	C456.977386,107.254280 456.731903,112.048317 454.030121,113.040840 
	C447.749908,115.347900 445.904694,122.084831 440.159302,125.491554 
	C435.577545,128.208282 431.966431,134.670776 427.289368,138.578781 
	C421.510132,143.407654 416.117249,148.699524 410.510162,153.667435 
	C404.769531,158.753693 398.508240,163.392471 393.485474,169.463501 
	C389.029114,174.849899 383.745087,179.724976 377.709381,183.542679 
	C376.129395,184.542053 376.360779,186.102707 376.355804,187.565613 
	C376.329193,195.391998 376.343231,203.218536 376.343231,210.964096 
	C384.612091,214.958832 391.608826,210.293945 396.030457,201.814041 
	C398.431335,197.209534 403.660309,194.147583 407.282867,190.094238 
	C411.406097,185.480637 417.648438,183.818893 421.639160,178.952011 
	C427.165802,172.212006 432.919159,165.608337 439.089600,159.462463 
	C443.527374,155.042297 447.510956,150.254837 452.856964,146.500610 
	C459.120026,142.102448 463.315033,134.826355 469.433899,130.139008 
	C477.242279,124.157326 482.557800,115.928253 489.950043,109.686089 
	C492.441040,107.582619 496.021881,107.493172 498.239655,104.599014 
	C499.567719,102.865913 497.538666,99.129486 501.164124,99.519409 
	C498.508301,93.621300 496.886688,87.773338 498.009583,81.386009 
	C498.036499,81.232849 498.234924,81.105759 498.251251,80.955421 
	C499.654846,68.041405 509.268097,64.075851 519.857727,61.859215 
	C530.442932,59.643513 542.617493,69.898132 544.487732,80.408035 
	C545.323364,85.103798 545.783875,90.072960 544.524353,93.875504 
	C542.682129,99.436966 539.460754,106.323418 533.132812,107.498123 
	C523.784302,109.233551 518.108337,115.090752 512.663025,121.633133 
	C510.893066,123.759666 508.376923,123.644890 506.561462,125.140503 
	C503.726105,127.476402 502.345825,131.339966 499.909271,133.450684 
	C496.234833,136.633713 493.249603,140.380753 489.741394,143.648071 
	C486.371246,146.786789 482.780548,149.691513 479.419891,152.791504 
	C471.945343,159.686325 465.227295,167.394958 457.864014,174.418716 
	C451.927032,180.081924 446.801239,186.528107 439.556091,190.983307 
	C435.455505,193.504837 432.739777,198.356537 429.569885,202.295212 
	C424.817413,208.200287 418.169373,211.778946 412.506134,216.559952 
	C410.996002,217.834824 409.737396,219.407654 408.165985,221.049896 
	C414.811737,225.461578 422.803436,226.384064 429.721985,229.852234 
	C430.141876,230.062714 430.562317,230.321533 430.896271,230.646469 
	C435.476746,235.103577 440.507477,234.544556 444.650482,229.632919 
	C448.517151,225.048798 453.025970,221.053925 458.245636,217.989365 
	C460.084961,216.909470 460.089691,214.420181 462.293701,213.500595 
	C467.012543,211.531738 470.756897,207.583740 473.930450,204.157455 
	C478.330322,199.407196 483.076233,194.854538 488.086914,191.229248 
	C492.992249,187.680176 495.875702,182.065140 501.863708,179.518311 
	C504.436127,178.424194 506.088531,173.918137 509.273376,172.532822 
	C514.812256,170.123596 518.021179,164.900833 522.429871,161.322296 
	C527.496460,157.209778 534.341248,152.865738 534.081055,143.302765 
	C533.833008,134.188416 537.729797,124.882957 545.189758,118.954124 
	C549.644836,115.413383 554.815613,112.203873 561.852173,112.317375 
	C565.735779,112.380035 570.318420,113.445107 574.390381,111.736755 
	C574.783569,111.571815 575.442383,111.703156 575.839417,111.934525 
	C582.092896,115.578156 589.590088,118.162399 593.232849,124.609695 
	C597.203064,131.636505 599.327026,139.510162 598.433655,148.068268 
	C597.638794,155.682602 593.754883,161.899002 589.348938,167.191193 
	C586.964111,170.055756 583.263062,174.160950 577.475647,173.617905 
	C574.492371,173.337982 571.558655,176.521622 567.910828,176.420486 
	C560.178894,176.206085 552.788940,174.946564 545.905762,170.319855 
	C543.446899,174.740448 539.171509,178.009445 535.492554,180.034485 
	C531.354187,182.312439 528.765503,186.184723 525.550964,188.819305 
	C522.211792,191.556061 518.409302,195.151382 515.103149,198.506409 
	C509.373962,204.320251 503.856354,210.842072 495.908600,214.099823 
	C495.359192,219.187653 489.676025,218.637939 487.388458,221.874771 
	C483.521881,227.345947 477.811279,230.882004 473.110504,235.357895 
	C469.690155,238.614670 464.033295,241.545410 463.524048,247.760284 
	C468.328217,250.078598 472.546082,252.310776 475.908539,256.057129 
	C477.936859,258.317047 481.471161,258.609100 483.740417,261.121277 
	C488.228394,266.089600 495.168549,267.552887 500.159485,272.418182 
	C502.560791,274.759033 505.724579,277.916901 509.789398,279.520935 
	C512.535400,280.604492 515.739441,283.012573 518.324463,285.318298 
	C521.906006,288.512878 526.788696,291.017944 529.228760,294.359680 
	C532.442444,298.760956 537.057373,300.828430 540.732544,303.967804 
	C545.902649,308.384125 550.338684,313.812775 556.460388,317.232513 
	C561.148987,319.851715 561.331909,322.461487 557.255432,325.610352 
	C554.617065,327.648315 551.870422,329.554596 550.204651,332.418488 
	C548.966980,334.546478 547.294922,332.810425 545.836182,333.404022 
	C544.836548,336.605621 544.080750,340.194611 539.439819,339.069000 
	C538.325989,344.703430 533.188660,346.557953 529.904114,349.805237 
	C525.378845,354.279205 520.238464,358.439606 514.912842,361.886353 
	C509.750336,365.227600 505.355042,369.390656 500.421204,372.925201 
	C495.545074,376.418365 489.433655,379.561157 486.220459,383.690033 
	C480.808289,390.644409 471.511841,391.628265 467.270844,400.004852 
	C470.148438,401.697357 469.235840,407.484131 475.349365,408.540131 
	C478.114563,409.017731 480.967743,412.951019 482.834900,415.621399 
	C486.314850,420.598358 491.548218,423.348663 495.661621,427.426453 
	C498.811401,430.549042 502.263672,433.685760 505.881714,436.413116 
	C508.172821,438.140228 509.778137,440.293060 511.665863,442.269318 
	C513.969421,444.680817 516.797485,447.262207 519.408875,448.884796 
	C526.670776,453.397034 531.608032,460.194122 538.098022,465.294586 
	C541.565491,468.019653 545.726685,469.838684 547.997070,474.169220 
	C554.646973,469.843719 561.493408,469.267670 569.186157,469.065460 
	C577.208191,468.854645 582.745850,472.666107 588.186951,476.263062 
	C592.293396,478.977692 594.805420,484.268890 596.498474,489.859589 
	C598.868103,497.684448 599.006165,504.917572 596.221436,512.292664 
	C593.257629,520.142212 588.410278,525.887268 580.185608,529.514221 
	C572.834412,532.756042 566.456360,533.360901 558.546143,531.606812 
	C544.466858,528.484802 536.634827,517.516968 534.762390,505.112762 
	C534.251343,501.728058 532.909668,498.571503 534.527649,495.037750 
	C535.230530,493.502625 528.376343,485.349030 526.481628,485.253387 
	C524.607849,485.158783 523.987061,483.886688 523.108032,482.693054 
	C518.749878,476.775024 512.479065,473.094269 506.757782,468.771454 
	C506.625366,468.671417 506.456635,468.603485 506.356628,468.478973 
	C501.279419,462.158386 494.274017,457.942413 488.647766,452.238556 
	C486.514130,450.075531 485.319702,447.005035 481.831970,446.298096 
	C480.467621,446.021576 479.735596,444.716125 479.640533,443.250824 
	C479.569580,442.157928 479.128326,441.209351 478.109314,440.873749 
	C471.857178,438.814453 468.070312,434.121033 463.996979,429.245789 
	C462.123322,427.003326 458.843506,425.102997 456.117676,423.207947 
	C451.968140,420.323181 448.255493,417.038818 444.740692,413.478027 
	C444.198608,412.928833 443.982452,412.057922 443.651733,411.406982 
	C432.864136,415.994934 422.985016,421.980225 411.645782,425.619324 
	C415.841400,428.907501 417.606873,433.890289 422.174255,436.157196 
	C422.609558,436.373291 423.099243,436.700256 423.314026,437.107391 
	C427.093964,444.273010 436.316162,445.998505 439.728821,453.610077 
	C440.542236,455.424316 443.353973,454.832306 444.736328,456.506653 
	C451.618256,464.842285 460.828705,470.857361 467.775574,479.055420 
	C474.006287,486.408386 482.376984,491.554138 488.246277,498.931732 
	C493.073975,505.000092 499.861816,508.369476 504.804993,513.935486 
	C510.238495,520.053589 517.147400,524.629028 522.282471,531.035706 
	C523.270874,532.268860 524.920471,532.229431 526.273804,532.768494 
	C532.744507,535.345642 538.385864,538.167236 542.290039,545.173218 
	C546.113403,552.034180 545.913391,558.043274 544.028076,564.624634 
	C541.700317,572.750732 535.180481,577.194458 527.922729,580.063477 
	C521.779480,582.491882 515.573120,580.366821 509.653442,577.905212 
	C502.089722,574.759949 499.762085,568.147339 497.964294,561.010071 
	C496.734467,556.127869 499.182190,551.558105 498.767578,546.793518 
	C498.641479,545.344360 501.678772,544.954285 499.908569,543.081177 
	C497.530121,540.564514 497.195282,535.836182 493.666748,535.038452 
	C489.415680,534.077332 487.069946,530.958679 484.923676,528.301392 
	C479.630890,521.748413 471.955444,517.803833 467.011169,511.069214 
	C464.668243,507.877930 460.703217,506.191895 459.329102,502.109039 
	C458.546478,499.783661 455.486816,500.538971 454.015045,499.101288 
	C450.264496,495.437714 446.331573,491.874359 443.158264,487.743408 
	C441.613708,485.732697 440.891815,483.853149 437.850861,483.610107 
	C436.431885,483.496674 434.999664,481.422974 433.888275,479.993042 
	C430.810333,476.032990 426.275146,473.607971 423.038940,470.019958 
	C416.250031,462.493011 408.736115,455.619446 401.446686,448.732758 
	C397.930267,445.410522 394.958984,440.485382 389.737915,438.725098 
	C388.347321,438.256226 387.657928,436.675537 387.317657,435.215790 
	C376.346863,438.570984 376.157776,438.577637 376.409363,445.720856 
	C376.611145,451.450256 374.848480,457.317780 380.403290,462.354340 
	C386.539429,467.917908 393.222748,473.019897 398.739655,479.075684 
	C403.190155,483.960938 409.555145,486.813904 412.750854,493.104156 
	C413.670135,494.913574 417.228516,495.208466 419.048309,497.501526 
	C423.365082,502.941101 430.757294,505.579834 433.168335,512.830811 
	C439.286316,512.455811 440.643066,518.764587 444.487518,521.544739 
	C450.575500,525.947205 456.966583,530.658936 461.607635,536.906189 
	C463.162872,538.999573 462.566742,541.837524 462.242188,544.221680 
	C461.723663,548.030518 463.925323,550.472168 466.385681,552.071411 
	C472.180908,555.838379 476.333740,560.277039 477.789490,567.387451 
	C479.226471,574.406250 476.325165,583.034302 470.214081,586.970520 
	C469.661346,587.326538 468.897644,587.755310 468.757080,588.288696 
	C467.446320,593.262085 463.195923,593.793091 459.238953,594.477539 
	C455.335236,595.152649 451.599670,594.827698 447.505096,593.933228 
	C436.820160,591.598999 432.251862,583.825562 430.123810,574.935242 
	C428.127869,566.596680 432.221191,559.185303 438.213379,553.591980 
	C439.323090,546.742188 432.429840,544.254028 430.475067,538.943115 
	C429.710114,536.864868 427.138245,536.911621 425.550262,535.494568 
	C420.277039,530.789062 415.110199,525.897644 409.818787,521.190247 
	C402.341888,514.538696 394.803375,507.946228 387.616394,500.941101 
	C383.665588,497.090271 379.716095,492.602234 374.891174,489.160583 
	C370.641327,486.129120 365.372437,483.238617 362.794983,478.049652 
	C362.198273,476.848358 361.320618,476.472565 360.284241,475.912506 
	C355.394531,473.270050 352.950897,468.962372 352.705170,463.524963 
	C352.494751,458.868256 352.691620,454.194427 352.641174,449.528870 
	C352.582397,444.095673 349.374146,441.756500 344.282806,443.659973 
	C342.432892,444.351562 340.783234,444.318237 338.958282,443.993683 
	C335.199951,443.325287 332.633728,445.355194 332.373444,449.157532 
	C332.282593,450.484772 332.345398,451.822845 332.345398,453.155975 
	C332.345154,492.650665 332.371979,532.145447 332.313354,571.640015 
	C332.306030,576.573303 332.844299,579.744934 338.279327,582.915955 
	C345.607422,587.191406 350.144928,594.849976 352.385254,603.884521 
	C355.409790,616.081604 347.475067,633.824463 335.391357,637.823059 
	C333.639557,638.402710 333.451691,639.129150 333.084045,640.689392 
	C325.312408,641.000000 317.624847,641.000000 309.468628,641.000000 
M456.104004,374.559601 
	C466.565521,368.962555 475.356720,361.066742 484.795197,354.039886 
	C489.783173,350.326355 494.295685,345.986877 499.584930,342.557434 
	C501.469299,341.335632 504.023010,339.870697 505.792419,337.735474 
	C510.332794,332.256256 515.994812,327.953278 521.973083,324.085114 
	C523.835144,322.880310 525.289734,320.427826 522.793030,319.580597 
	C520.154480,318.685242 518.751221,316.323181 517.128174,315.622589 
	C509.682343,312.408691 505.072357,306.040466 499.022308,301.353790 
	C495.205627,298.397247 490.645782,296.260193 487.291779,292.887848 
	C484.268707,289.848236 480.660095,286.589905 477.394897,285.315735 
	C470.729675,282.714844 466.180389,277.412201 460.152832,274.100403 
	C455.728668,271.669556 450.868713,269.082733 446.646362,265.523651 
	C442.159088,261.741211 435.282043,260.421631 429.806335,257.183319 
	C425.552551,254.667633 421.234314,251.015259 417.005768,250.000015 
	C410.491150,248.435883 404.861572,244.991180 398.373901,243.457764 
	C385.998627,240.532761 374.316132,235.187408 361.662811,232.767487 
	C356.530426,231.785934 351.420898,233.451569 346.457428,231.385910 
	C341.952515,229.511078 336.984680,229.257660 332.179718,229.432983 
	C321.321747,229.829163 310.425629,228.179245 299.593292,230.282867 
	C292.091400,231.739731 284.362457,231.605759 276.909851,233.719833 
	C270.365387,235.576309 263.719330,237.798767 257.195435,238.853653 
	C247.093384,240.487061 238.295395,244.722580 229.586472,249.187561 
	C226.678436,250.678482 223.217926,248.987549 221.040131,251.841003 
	C219.134033,254.338486 216.230652,255.219070 213.488297,256.436890 
	C207.248596,259.207733 200.168976,261.090271 195.147705,265.355286 
	C188.435074,271.056946 180.398682,274.291809 173.395859,279.389038 
	C165.495163,285.139832 156.935181,290.038391 149.650528,296.664825 
	C146.056305,299.934265 141.431580,301.822510 137.929398,304.750641 
	C134.463928,307.648102 130.821701,310.491028 127.462303,313.569580 
	C124.533150,316.253845 119.943451,317.485352 119.116646,322.279083 
	C122.728798,328.312836 128.754120,332.148987 133.686066,336.736938 
	C138.454193,341.172516 144.661545,344.648438 149.703995,348.957275 
	C155.494019,353.904968 161.774277,358.043701 167.706345,362.698364 
	C176.219208,369.378021 185.440079,375.022827 194.304871,381.126495 
	C203.391678,387.382965 213.834702,391.644165 224.006149,396.209686 
	C233.747513,400.582123 243.024796,406.018555 253.525238,408.477783 
	C255.732849,408.994812 256.314758,412.288391 258.938538,411.360382 
	C263.096344,409.889801 266.484741,412.170380 269.576630,413.972504 
	C271.513184,415.101227 273.565826,415.191223 275.306641,415.485565 
	C278.484436,416.022888 281.878204,415.459869 285.107605,416.443939 
	C295.379700,419.574005 305.851135,420.234222 316.562897,419.788971 
	C322.910919,419.525116 329.473846,420.479126 335.713898,420.481964 
	C344.817383,420.486084 353.962311,417.335602 363.016541,415.217834 
	C374.106842,412.623871 385.089020,409.681549 395.806091,405.675201 
	C403.148193,402.930603 410.640015,400.735992 417.368591,396.506622 
	C423.877655,392.415222 431.921112,391.141937 437.709137,385.678009 
	C439.160004,384.308411 441.108276,385.494202 442.878113,383.900970 
	C446.682526,380.476257 451.258301,377.908478 456.104004,374.559601 
z"/>
<path fill="#c0c0c0" opacity="1.000000" stroke="none" 
	d="
M537.800476,245.997711 
	C531.198914,249.614944 524.845886,250.910965 518.145813,247.247940 
	C509.638611,242.596924 506.156036,231.108154 510.921997,222.961731 
	C516.281738,213.800339 528.487183,210.290146 537.591614,215.910431 
	C540.499939,217.705780 542.914490,220.549789 543.091003,224.206070 
	C543.224304,226.967850 545.380249,228.768494 545.461975,231.625473 
	C545.641174,237.886368 541.091003,241.363571 537.800476,245.997711 
z"/>
<path fill="#c0c0c0" opacity="1.000000" stroke="none" 
	d="
M532.332275,397.824463 
	C535.804749,400.451233 539.880798,401.232849 542.456360,405.447662 
	C547.622986,413.902679 544.927368,426.060822 536.197815,429.803162 
	C530.572876,432.214569 524.953674,433.341644 518.949036,430.533173 
	C510.783051,426.713806 506.901062,415.243256 511.517731,407.562683 
	C513.054993,405.005188 512.740906,401.692657 516.261902,399.867249 
	C521.434937,397.185303 526.414185,395.958527 532.332275,397.824463 
z"/>
<path fill="#c0c0c0" opacity="1.000000" stroke="none" 
	d="
M354.008270,548.089600 
	C352.074188,542.453918 349.352509,537.919739 350.609314,531.185547 
	C352.320892,522.014648 358.416779,520.196899 365.027100,517.904358 
	C368.871857,516.570984 375.340332,519.352173 377.523956,523.062744 
	C378.603607,524.897400 380.696625,525.249329 381.900330,526.875427 
	C387.038025,533.815796 382.405151,546.422363 378.102234,549.791931 
	C373.632111,553.292480 368.346771,553.538269 362.778595,552.465332 
	C359.439758,551.821960 356.390717,551.188660 354.008270,548.089600 
z"/>
<path fill="#c0c0c0" opacity="1.000000" stroke="none" 
	d="
M259.919830,111.940765 
	C256.638580,103.277199 257.174255,97.354202 263.842590,91.323151 
	C269.045441,86.617523 275.421509,87.470818 281.501556,87.900841 
	C285.533783,88.186043 290.277802,94.406998 291.236359,98.601814 
	C292.024994,102.053017 294.041321,105.101051 293.015594,109.033516 
	C291.198212,116.001007 285.408295,118.959946 279.988953,121.680656 
	C271.856720,125.763336 263.354858,121.320152 259.919830,111.940765 
z"/>
<path fill="#c0c0c0" opacity="1.000000" stroke="none" 
	d="
M388.900940,360.141113 
	C385.267578,369.800995 380.696747,378.282135 371.180511,382.807556 
	C369.147400,383.774414 368.794189,386.002838 366.772003,387.202148 
	C355.670441,393.786346 344.038330,398.839050 331.326355,401.295502 
	C319.784058,403.525909 308.701294,400.850342 297.543304,398.411194 
	C292.061859,397.212952 286.344391,395.860718 282.049988,392.708282 
	C274.153259,386.911530 264.996338,382.610291 259.331970,373.787750 
	C256.905518,370.008392 253.757477,366.579498 251.497818,362.575348 
	C250.296539,360.446625 249.040756,358.638916 249.310318,355.753632 
	C249.538651,353.309509 247.529068,350.236206 246.308884,348.591797 
	C242.535629,343.506744 243.397232,337.867126 242.833694,332.539520 
	C241.980927,324.477600 242.352188,316.316376 243.900345,308.263092 
	C244.835754,303.397156 247.431778,298.985504 248.331238,294.323517 
	C249.258911,289.515320 252.201874,286.130615 254.333267,282.297821 
	C256.198914,278.942902 258.520996,275.253754 262.499725,273.516479 
	C263.692535,272.995667 264.394501,272.254791 264.096710,270.815033 
	C263.975464,270.228821 264.139252,269.583618 264.173340,268.965271 
	C268.729919,269.396912 268.626251,262.712616 273.090057,263.103027 
	C274.568726,263.232391 275.308014,262.133514 275.920410,261.381378 
	C280.683594,255.531281 287.259521,253.293060 294.235413,251.574875 
	C303.424255,249.311615 312.459167,245.259872 322.080994,246.818878 
	C330.203461,248.134933 338.608490,247.757767 346.466095,250.833542 
	C360.020721,256.139313 372.342987,263.872925 381.323700,274.981842 
	C386.254181,281.080811 392.842438,287.366699 393.300873,296.610138 
	C393.415314,298.917480 395.304474,301.226746 396.264374,303.553680 
	C398.975128,310.124969 398.020813,316.465240 397.513428,323.056641 
	C397.150360,327.772919 398.326294,332.645630 397.683990,337.292175 
	C396.985382,342.346100 394.600708,347.149872 393.675385,352.195557 
	C393.063019,355.534454 390.858582,357.432373 388.900940,360.141113 
M282.265137,287.789062 
	C279.015045,291.574493 274.661438,293.933777 272.994171,299.636871 
	C270.016327,309.822906 263.994293,319.248077 267.299866,330.556946 
	C267.389557,330.863708 267.312775,331.219269 267.313110,331.552063 
	C267.321777,340.288330 271.773834,347.381836 276.407745,354.139191 
	C279.519531,358.676941 281.995148,364.242218 288.062622,366.084137 
	C288.467957,366.207214 288.770447,366.766296 289.056946,367.168091 
	C291.011414,369.909271 294.079010,371.622314 296.826477,372.752228 
	C306.485138,376.724335 316.913391,377.308533 327.152466,376.677826 
	C330.750885,376.456207 335.659760,377.380005 337.996643,375.331696 
	C342.976562,370.966797 349.375092,369.587921 354.637299,365.818573 
	C358.213745,363.256714 360.098633,359.587219 363.208466,356.855377 
	C366.411224,354.041901 369.356232,349.442841 370.643921,345.339355 
	C373.454651,336.382111 374.366241,326.903748 373.834259,317.368011 
	C373.607147,313.296936 372.151184,309.261688 370.966827,305.814606 
	C369.837646,302.528107 367.543152,298.571899 364.998962,295.480499 
	C360.392914,289.883881 355.383667,284.613831 349.831848,279.932434 
	C347.280518,277.781097 344.737274,274.704285 341.063812,275.483887 
	C338.883118,275.946686 337.456940,275.378326 336.086212,274.348480 
	C332.600067,271.729218 327.977509,270.850250 324.474213,271.114624 
	C317.135162,271.668365 309.699432,270.809570 302.313660,274.694672 
	C295.323059,278.371918 288.590393,281.994904 282.265137,287.789062 
z"/>
<path fill="#c0c0c0" opacity="1.000000" stroke="none" 
	d="
M293.403503,347.384949 
	C289.728851,344.775360 287.518646,342.270966 286.785522,337.422302 
	C285.930542,331.767609 283.091003,326.461243 283.557037,320.350983 
	C283.895813,315.908508 285.160339,311.961731 287.330963,307.999817 
	C289.553680,308.542145 290.599213,309.887634 291.583405,311.766113 
	C293.371704,315.179291 295.833527,318.014465 299.586639,319.653595 
	C305.504974,322.238342 310.711121,320.212219 313.089478,314.124939 
	C313.932373,311.967712 314.786530,309.811279 315.741974,307.702698 
	C316.635437,305.731079 316.141693,303.391296 314.718201,302.745178 
	C310.298828,300.739319 309.179230,294.926636 303.687195,294.197296 
	C306.175751,289.122253 311.205597,289.591309 314.867981,289.087036 
	C328.450714,287.216888 340.379791,291.195862 349.197815,302.098236 
	C356.506256,311.134247 359.116486,321.880096 355.960480,332.931091 
	C352.483765,345.105255 344.699615,354.419800 332.167603,358.427338 
	C324.671204,360.824554 316.294098,361.625214 309.281647,358.707367 
	C305.345612,357.069611 299.276337,356.332916 297.288971,350.795593 
	C296.664215,349.054962 293.339935,350.476379 293.403503,347.384949 
z"/>
</svg>